 <svg  version="1.0" xmlns="http://www.w3.org/2000/svg"  width="300.000000pt" height="400.000000pt" viewBox="0 0 300.000000 400.000000"  preserveAspectRatio="xMidYMid meet">  <g transform="translate(0.000000,400.000000) scale(0.100000,-0.100000)" fill="#ffffff" stroke="none"> <path d="M790 3708 c-14 -6 -48 -21 -77 -34 -29 -13 -63 -28 -77 -34 -15 -5 -26 -14 -26 -19 0 -5 -17 -15 -37 -22 -21 -6 -44 -19 -53 -27 -13 -14 -13 -15 5 -8 29 13 76 16 69 5 -3 -6 -15 -7 -26 -3 -14 4 -18 2 -14 -5 4 -6 15 -11 24 -11 15 0 15 -2 2 -10 -9 -6 -18 -6 -24 0 -17 17 -54 11 -70 -12 -21 -30 -20 -37 4 -31 11 3 18 8 16 12 -9 13 30 30 45 19 11 -8 11 -9 -3 -4 -10 3 -20 1 -23 -5 -4 -5 -1 -8 5 -7 7 2 14 -5 15 -14 3 -15 -3 -17 -30 -14 -18 2 -40 -1 -48 -7 -20 -17 -31 -67 -15 -68 7 0 4 -5 -7 -10 -15 -7 -13 -8 10 -3 17 4 37 7 46 8 9 0 16 6 16 13 0 16 -9 17 -25 1 -9 -9 -15 -9 -24 0 -10 10 -8 14 10 18 12 4 19 10 16 15 -3 5 -11 6 -17 3 -9 -5 -9 -4 -1 6 7 7 21 9 34 5 18 -6 20 -9 9 -17 -10 -7 -8 -8 8 -3 12 3 24 1 28 -5 3 -5 15 -10 26 -10 12 0 17 4 14 11 -4 6 -9 8 -12 5 -3 -3 -14 -1 -25 5 -15 8 -17 13 -8 24 6 8 19 11 28 8 13 -4 12 -2 -3 10 -15 12 -17 19 -9 27 9 9 19 8 40 -5 29 -17 29 -17 9 2 -30 28 -29 43 3 39 15 -2 19 -1 10 1 -10 2 -18 9 -18 14 0 11 -2 11 37 0 23 -7 35 -6 39 2 4 7 4 9 -1 5 -9 -9 -65 19 -65 32 0 5 4 11 10 15 12 8 60 -5 60 -16 0 -5 -12 -4 -27 2 -22 8 -25 8 -16 -2 6 -6 26 -13 43 -15 29 -4 31 -2 19 13 -13 15 -12 15 9 4 13 -7 26 -10 29 -8 5 6 -32 28 -44 26 -20 -3 -34 2 -28 11 4 6 10 8 15 5 5 -3 11 -1 15 5 4 6 11 7 17 4 6 -4 8 -3 5 3 -4 6 5 15 20 22 21 10 30 9 52 -5 l26 -18 -30 -12 c-17 -7 -39 -11 -50 -9 -11 3 -2 -4 20 -14 21 -11 44 -17 50 -13 6 4 2 8 -8 10 -9 2 -15 8 -12 13 8 13 21 11 37 -4 7 -8 27 -17 43 -20 26 -6 27 -6 10 4 -26 15 -84 72 -85 83 0 4 19 5 43 2 23 -3 69 -8 102 -10 33 -2 71 -8 85 -13 14 -6 33 -9 44 -7 24 3 87 -27 79 -39 -3 -5 -9 -4 -13 3 -4 7 -20 14 -34 15 -22 3 -25 1 -15 -11 6 -8 20 -14 30 -14 10 0 21 -5 24 -11 4 -6 13 -8 21 -5 7 3 16 0 20 -6 4 -7 3 -8 -4 -4 -19 12 -14 -6 11 -33 l22 -26 -25 20 c-14 11 -28 24 -31 28 -3 5 -22 10 -41 11 -24 3 -35 0 -35 -10 0 -8 4 -14 9 -14 4 0 7 -6 5 -12 -1 -7 3 -12 8 -11 6 1 22 -7 35 -17 l25 -19 -25 2 c-14 1 -36 8 -48 16 -13 7 -26 10 -29 7 -3 -3 -15 0 -27 6 -19 10 -20 10 -7 -6 8 -9 20 -15 28 -12 8 3 11 2 8 -3 -3 -5 4 -16 15 -24 11 -7 17 -17 14 -20 -4 -4 -29 13 -56 36 -28 23 -62 51 -76 61 l-27 20 23 -25 c12 -14 19 -28 16 -32 -4 -4 -14 1 -23 11 -9 9 -26 18 -39 18 -18 1 -21 -2 -16 -19 5 -17 0 -14 -26 11 -18 18 -35 30 -38 27 -4 -3 7 -17 23 -30 36 -29 21 -33 -15 -5 -32 25 -39 25 -35 -2 7 -45 11 -55 28 -81 15 -24 15 -27 2 -27 -9 0 -19 10 -24 23 -5 12 -10 26 -12 32 -5 12 -74 75 -83 75 -3 0 -6 -5 -6 -11 0 -5 4 -8 8 -5 13 8 65 -50 57 -63 -4 -8 -12 -8 -26 0 -11 5 -29 7 -39 4 -18 -6 -18 -8 -5 -21 8 -8 20 -23 27 -32 13 -18 77 -52 97 -52 18 0 12 19 -10 31 -15 8 -19 8 -15 0 11 -18 -9 -13 -38 10 -26 21 -36 54 -13 47 6 -3 12 -10 12 -16 0 -15 12 -25 33 -28 26 -2 46 -8 52 -15 8 -11 112 -61 116 -56 2 2 -19 14 -46 27 -28 13 -56 30 -62 37 -14 18 -4 16 40 -6 54 -27 95 -36 47 -10 -22 12 -47 28 -56 36 -9 7 -20 13 -25 11 -5 -2 -9 2 -9 7 0 6 4 8 10 6 6 -2 15 -4 22 -4 7 0 10 -5 7 -11 -3 -6 1 -3 10 8 9 11 20 15 28 10 7 -4 5 2 -6 14 -10 12 -22 19 -26 17 -4 -3 -10 1 -13 9 -3 8 0 13 7 12 20 -3 77 -47 71 -56 -3 -5 0 -12 6 -16 8 -4 9 -3 5 4 -4 7 -3 12 3 12 19 0 21 -19 4 -29 -17 -9 -17 -10 2 -17 11 -4 25 -9 30 -11 6 -3 1 3 -9 11 -11 9 -17 17 -13 17 4 1 11 2 16 3 5 0 13 5 18 10 4 5 3 7 -3 3 -6 -3 -31 13 -55 38 -24 24 -46 42 -50 40 -3 -2 -6 2 -6 10 0 16 12 11 45 -19 13 -12 23 -16 22 -11 -6 26 3 25 38 -4 20 -18 43 -36 50 -42 7 -5 17 -7 24 -3 6 4 8 3 5 -3 -8 -12 20 -39 30 -29 3 3 -2 15 -12 26 -10 11 -14 20 -10 20 4 0 0 9 -10 20 -24 27 -11 25 28 -2 18 -13 38 -22 44 -20 7 2 13 -3 13 -10 0 -8 5 -5 11 5 7 13 7 22 0 31 -6 7 -8 16 -4 20 4 4 1 5 -7 2 -8 -3 -30 8 -48 23 -34 29 -34 29 -8 27 14 0 26 -4 26 -8 0 -14 56 -37 69 -29 29 18 -89 148 -141 157 -7 1 -20 5 -29 9 -10 3 -20 2 -23 -4 -4 -6 -15 -5 -31 3 -30 16 -171 19 -205 4z m261 -25 c13 -16 12 -17 -3 -4 -10 7 -18 15 -18 17 0 8 8 3 21 -13z m-197 -158 c14 -13 26 -29 26 -36 0 -8 4 -8 15 1 10 9 15 9 15 1 0 -11 -16 -16 -35 -11 -5 2 -19 4 -30 6 -11 1 -22 3 -25 3 -3 1 4 8 14 16 16 12 17 15 4 15 -9 0 -18 7 -22 15 -8 22 8 18 38 -10z m333 -29 c5 -5 2 -6 -6 -1 -7 4 -16 3 -21 -4 -5 -9 -10 -9 -18 1 -9 11 -6 14 13 13 13 0 27 -4 32 -9z m-447 -10 c0 -11 -19 -15 -25 -6 -3 5 1 10 9 10 9 0 16 -2 16 -4z m53 -10 c4 -10 1 -13 -8 -9 -8 3 -12 9 -9 14 7 12 11 11 17 -5z"/> <path d="M848 3683 c7 -3 16 -2 19 1 4 3 -2 6 -13 5 -11 0 -14 -3 -6 -6z"/> <path d="M751 3671 c-8 -5 -9 -11 -3 -15 14 -8 43 4 36 15 -7 11 -15 11 -33 0z"/> <path d="M930 3676 c0 -2 7 -9 15 -16 13 -11 14 -10 9 4 -5 14 -24 23 -24 12z"/> <path d="M988 3659 c12 -11 19 -26 16 -32 -5 -9 -4 -9 6 0 10 9 21 9 49 -2 l36 -15 -24 21 c-14 11 -33 18 -44 15 -13 -3 -17 0 -13 10 3 8 2 12 -3 9 -5 -3 -12 -1 -16 5 -3 5 -11 10 -17 10 -7 0 -2 -9 10 -21z"/> <path d="M895 3650 c6 -9 2 -10 -15 -5 -34 11 -16 -11 20 -23 18 -7 32 -7 35 -1 9 13 25 11 21 -3 -1 -7 -1 -10 1 -5 3 4 9 5 14 2 5 -4 6 1 3 9 -3 9 -10 16 -14 16 -5 0 -16 3 -24 6 -12 5 -15 2 -10 -10 5 -12 2 -15 -10 -10 -9 3 -14 10 -11 14 3 5 0 12 -6 16 -8 5 -9 3 -4 -6z"/> <path d="M1025 3599 c4 -5 -7 -6 -25 -3 -17 4 -30 2 -30 -4 0 -5 21 -13 48 -17 26 -4 50 -12 55 -18 4 -7 6 -1 4 13 -3 16 -12 26 -30 31 -16 4 -25 3 -22 -2z"/> <path d="M895 3590 c-19 -8 -19 -9 2 -9 12 -1 25 4 28 9 7 12 -2 12 -30 0z"/> <path d="M753 3583 c4 -3 5 -8 2 -13 -2 -4 5 -16 18 -26 l22 -19 -20 24 c-18 21 -18 24 -2 18 9 -4 17 -2 17 3 0 6 -4 10 -9 10 -5 0 -15 2 -23 3 -7 2 -10 2 -5 0z"/> <path d="M1245 3550 c-3 -5 -3 -14 0 -20 3 -5 0 -10 -7 -10 -8 0 -7 -6 5 -17 13 -13 20 -14 28 -6 9 9 8 16 -5 28 -9 9 -14 21 -11 26 4 5 4 9 1 9 -3 0 -8 -4 -11 -10z"/> <path d="M660 3530 c0 -5 -7 -6 -17 -3 -22 9 -8 -13 17 -27 17 -9 19 -8 13 7 -6 16 -5 16 10 4 13 -10 17 -10 17 -1 0 7 6 10 13 7 54 -22 54 -22 33 1 -21 24 -46 29 -46 10 0 -9 -3 -9 -12 0 -14 14 -28 16 -28 2z"/> <path d="M1208 3508 c9 -11 10 -18 2 -23 -5 -3 -10 -16 -9 -28 0 -12 3 -16 6 -9 4 10 9 9 24 -4 15 -13 22 -15 31 -6 7 7 17 12 23 12 5 0 2 -5 -7 -11 -16 -9 -15 -36 2 -49 15 -12 50 -84 64 -129 8 -27 20 -60 27 -73 7 -12 13 -32 15 -43 1 -11 5 -29 9 -40 4 -12 3 -15 -2 -9 -9 12 -97 11 -128 -2 -25 -10 -62 -44 -49 -44 6 0 14 3 18 8 4 4 11 7 14 7 4 1 24 7 45 14 22 7 53 10 76 6 35 -6 40 -11 61 -61 19 -46 21 -60 11 -81 -7 -14 -9 -28 -6 -31 3 -3 5 1 5 9 1 11 3 10 10 -2 9 -15 22 -88 24 -131 0 -10 3 -18 7 -18 4 0 9 -25 11 -55 1 -30 0 -55 -4 -55 -12 0 -2 -30 19 -56 12 -14 19 -34 16 -45 -4 -15 0 -19 18 -19 18 0 20 3 11 12 -22 22 -13 28 43 28 30 0 55 -3 55 -7 0 -5 18 -8 39 -8 22 0 37 3 35 7 -3 5 10 6 28 4 18 -2 57 -4 85 -5 42 -1 59 -6 84 -29 29 -25 108 -160 146 -245 11 -25 19 -34 24 -25 8 13 49 -69 49 -97 0 -8 9 -19 20 -25 11 -6 20 -16 20 -21 0 -6 11 -24 25 -41 14 -16 25 -38 25 -48 0 -9 6 -23 13 -29 8 -6 20 -29 27 -51 7 -22 19 -45 27 -51 7 -6 13 -15 13 -20 0 -5 18 -25 39 -45 22 -19 43 -48 46 -64 4 -16 17 -44 29 -62 12 -19 21 -39 18 -46 -2 -7 3 -12 12 -12 9 0 17 -6 18 -12 6 -55 19 -97 34 -109 8 -6 14 -30 15 -53 0 -39 25 -191 28 -171 5 37 19 37 87 0 155 -83 244 -140 244 -157 0 -11 -18 -23 -55 -37 -66 -25 -98 -26 -115 -6 -7 8 -19 15 -26 15 -8 0 -14 5 -14 10 0 6 -4 10 -10 10 -15 0 -12 -21 4 -34 12 -9 11 -25 -9 -106 -13 -52 -26 -107 -29 -121 -7 -32 -33 -34 -52 -4 -14 22 -10 55 7 55 10 0 29 67 28 100 0 14 -6 2 -14 -28 -7 -29 -22 -63 -33 -75 -22 -24 -21 -67 2 -67 21 0 56 -40 56 -64 0 -18 21 -36 96 -85 52 -34 106 -67 120 -73 13 -6 24 -15 24 -20 0 -4 5 -8 11 -8 6 0 30 -13 53 -28 48 -32 76 -45 76 -33 0 13 -28 33 -125 91 -49 29 -99 61 -110 70 -11 10 -42 30 -70 45 -27 16 -52 30 -54 31 -4 3 50 286 56 293 2 2 14 -1 27 -8 44 -24 186 37 186 80 0 13 -20 32 -57 56 -53 34 -262 145 -290 154 -8 3 -13 34 -16 92 -2 70 -6 91 -19 98 -9 5 -22 35 -29 67 -8 34 -21 64 -34 73 -11 9 -29 40 -39 68 -10 28 -31 64 -48 79 -37 34 -86 105 -94 137 -3 13 -12 29 -20 36 -8 6 -14 20 -14 29 0 10 -10 31 -22 47 -45 55 -65 89 -77 125 -7 20 -26 56 -44 80 -17 24 -54 85 -82 137 -29 55 -65 106 -85 122 -35 28 -38 29 -223 37 -103 5 -191 12 -194 16 -4 3 -8 24 -9 45 -4 58 -43 290 -56 330 -6 19 -22 60 -36 90 -15 31 -25 66 -24 77 2 12 -3 28 -11 36 -8 8 -22 59 -31 113 -10 55 -21 104 -27 111 -5 6 -6 14 -2 17 3 4 -1 7 -11 7 -9 0 -15 4 -12 9 9 14 -4 41 -20 41 -20 0 -17 -18 4 -23 9 -3 2 -5 -15 -6 -18 0 -33 4 -33 10 0 6 -7 8 -16 5 -14 -5 -15 -4 -5 7 9 11 7 17 -6 28 -16 13 -17 12 -5 -3z m102 -106 c0 -12 -3 -12 -15 -2 -8 7 -15 13 -15 15 0 1 7 2 15 2 8 0 15 -7 15 -15z"/> <path d="M603 3486 c3 -8 1 -17 -6 -19 -7 -2 0 -10 15 -17 15 -7 25 -16 23 -21 -3 -4 0 -11 6 -15 8 -5 9 -3 4 6 -5 9 -4 11 4 6 9 -6 9 -11 -1 -24 -8 -9 -8 -13 -2 -9 7 4 15 0 18 -9 3 -8 19 -20 36 -25 16 -6 30 -15 30 -20 0 -5 9 -9 19 -9 11 0 21 -6 24 -12 2 -7 7 -10 11 -6 4 3 3 15 -3 26 -9 17 -8 22 9 27 11 3 27 2 37 -3 12 -7 21 -5 32 6 15 14 16 14 19 -2 3 -12 10 -16 23 -13 10 3 17 1 13 -4 -3 -5 1 -9 8 -10 7 -1 25 -2 41 -3 19 -2 27 2 27 13 0 11 -3 12 -11 4 -9 -9 -23 -6 -58 12 -35 17 -51 21 -64 13 -13 -7 -31 -5 -63 6 -42 14 -44 14 -34 -4 7 -13 6 -19 -6 -24 -21 -8 -26 -8 -20 3 6 8 -22 38 -32 34 -3 -1 -8 -7 -13 -14 -5 -9 -10 -4 -14 17 -4 16 -19 40 -34 53 -14 13 -19 20 -11 15 10 -5 8 0 -4 14 -22 25 -30 28 -23 8z m122 -116 c3 -5 1 -10 -4 -10 -6 0 -11 5 -11 10 0 6 2 10 4 10 3 0 8 -4 11 -10z"/> <path d="M664 3467 c3 -22 15 -34 38 -40 21 -5 21 -5 6 7 -10 7 -15 16 -12 19 3 3 -3 10 -14 16 -15 8 -20 8 -18 -2z"/> <path d="M1132 3460 c13 -20 28 -27 28 -12 0 4 -9 13 -20 20 -19 12 -20 11 -8 -8z"/> <path d="M1076 3437 c3 -10 9 -15 12 -12 3 3 0 11 -7 18 -10 9 -11 8 -5 -6z"/> <path d="M540 3423 c0 -12 28 -38 34 -32 2 2 -5 13 -15 23 -11 11 -19 15 -19 9z"/> <path d="M680 3408 c0 -8 7 -15 15 -15 18 0 15 19 -3 25 -7 2 -12 -3 -12 -10z"/> <path d="M1040 3406 c0 -2 7 -6 15 -10 8 -3 15 -1 15 4 0 6 -7 10 -15 10 -8 0 -15 -2 -15 -4z"/> <path d="M500 3388 c-19 -5 -43 -9 -52 -9 -12 0 -18 -8 -18 -24 0 -13 -5 -27 -10 -30 -17 -11 -9 -92 11 -106 9 -7 15 -19 11 -27 -3 -10 0 -13 9 -10 8 3 13 15 11 28 -4 22 -2 23 14 10 16 -14 16 -13 6 5 -6 11 -13 28 -16 38 -7 22 -26 13 -25 -11 0 -14 2 -13 10 3 8 19 9 19 6 -3 -3 -33 -19 -32 -28 1 -7 25 -4 30 24 43 l32 14 -35 -4 c-31 -4 -33 -3 -17 9 10 7 18 16 17 19 -4 18 9 29 33 29 15 0 27 3 27 7 0 5 9 6 20 3 16 -4 19 -2 14 11 -3 9 -7 16 -8 15 0 -1 -17 -5 -36 -11z"/> <path d="M600 3380 c6 -11 14 -19 18 -19 21 4 42 -2 42 -12 0 -5 -5 -7 -12 -3 -7 4 -8 3 -4 -4 4 -7 16 -12 27 -12 22 0 61 -18 70 -33 4 -5 9 -5 13 2 4 6 -1 14 -11 18 -10 3 -26 13 -36 21 -9 8 -20 13 -23 9 -3 -3 -15 4 -26 15 -11 11 -26 17 -35 14 -13 -5 -14 -4 -3 9 10 13 9 15 -9 15 -19 0 -20 -3 -11 -20z"/> <path d="M984 3378 c-4 -6 -3 -8 4 -4 5 3 12 1 14 -5 2 -7 9 -10 16 -8 8 3 5 9 -7 16 -15 9 -22 10 -27 1z"/> <path d="M560 3370 c0 -6 -9 -10 -19 -10 -11 0 -23 -5 -27 -12 -5 -8 2 -9 26 -5 18 4 36 7 41 7 15 0 10 17 -6 24 -8 3 -15 1 -15 -4z"/> <path d="M860 3339 c0 -5 9 -9 20 -9 11 0 20 2 20 4 0 2 -9 6 -20 9 -11 3 -20 1 -20 -4z"/> <path d="M475 3330 c-3 -5 9 -14 27 -19 24 -7 27 -9 11 -10 -12 -1 -24 -5 -27 -9 -9 -15 28 -7 56 12 31 20 28 43 -2 23 -16 -9 -24 -9 -40 0 -11 8 -21 9 -25 3z"/> <path d="M590 3326 c-9 -12 -8 -15 7 -16 74 -3 91 -6 83 -14 -12 -12 -72 -18 -65 -6 3 6 1 10 -4 10 -6 0 -11 -5 -11 -11 0 -8 -5 -7 -15 1 -9 7 -18 10 -22 6 -3 -3 -1 -6 6 -6 7 0 9 -5 5 -11 -5 -8 4 -10 29 -7 30 3 35 1 31 -15 -2 -11 -6 -22 -10 -26 -4 -3 -4 2 -1 11 5 13 0 17 -26 16 -44 0 -67 -7 -67 -21 0 -7 -7 -23 -16 -36 -13 -18 -18 -20 -25 -10 -5 9 -7 4 -5 -14 1 -15 6 -30 11 -35 4 -4 5 -1 1 6 -5 9 -1 15 13 19 12 3 21 8 22 12 0 3 2 16 3 28 2 13 5 25 8 28 10 10 68 14 63 4 -4 -5 -17 -9 -31 -9 -16 0 -24 -6 -24 -17 0 -13 3 -14 12 -5 7 7 19 12 27 12 11 0 10 -4 -5 -16 -10 -8 -13 -13 -6 -9 19 10 14 -2 -14 -32 -24 -25 -25 -25 -15 -5 7 13 10 26 8 29 -3 2 -11 -5 -17 -17 -21 -40 4 -45 39 -8 17 18 31 37 31 42 0 4 11 17 25 28 13 10 24 24 22 30 -1 6 16 16 38 22 38 12 39 12 15 20 -14 5 -38 9 -54 10 -16 0 -31 7 -33 14 -6 16 -18 15 -33 -2z"/> <path d="M790 3336 c0 -2 7 -9 15 -16 13 -11 14 -10 9 4 -5 14 -24 23 -24 12z"/> <path d="M494 3265 c-9 -22 1 -29 15 -11 8 10 9 16 1 21 -5 3 -13 -1 -16 -10z"/> <path d="M1015 3224 l-30 -13 30 6 c32 6 41 11 34 17 -2 2 -17 -2 -34 -10z"/> <path d="M959 3203 c-13 -16 -12 -17 4 -4 9 7 17 15 17 17 0 8 -8 3 -21 -13z"/> <path d="M1079 3186 c-2 -2 -17 -7 -34 -10 -16 -3 -48 -10 -69 -15 -22 -5 -43 -8 -46 -6 -4 2 -7 -3 -7 -11 0 -9 6 -13 16 -9 9 3 49 15 91 26 76 21 96 29 68 29 -8 0 -17 -2 -19 -4z"/> <path d="M425 3133 c-33 -68 -46 -126 -55 -249 -12 -152 -20 -204 -32 -204 -6 0 -7 17 -3 43 12 70 -4 36 -31 -69 -14 -54 -47 -149 -74 -210 -69 -158 -80 -202 -80 -318 -1 -69 -5 -109 -15 -126 -8 -14 -14 -45 -15 -69 0 -48 35 -166 57 -192 17 -20 17 -40 -2 -66 -14 -20 -14 -23 4 -33 14 -7 22 -25 26 -58 3 -26 10 -55 15 -64 13 -23 28 -85 45 -178 7 -41 22 -100 33 -130 11 -30 35 -134 52 -230 42 -235 71 -333 140 -475 58 -118 83 -151 162 -210 21 -15 35 -32 31 -38 -3 -6 -1 -7 6 -3 12 8 -2 32 -59 96 -44 51 -90 133 -90 164 0 30 -14 34 -30 9 -23 -37 -4 91 22 147 32 68 150 229 156 212 2 -6 9 -9 15 -5 7 3 8 2 4 -3 -5 -5 -14 -9 -20 -9 -6 0 -33 -38 -59 -85 -62 -106 -87 -203 -70 -267 11 -39 68 -153 77 -153 7 0 -27 105 -35 108 -4 2 -5 12 -2 24 3 13 1 19 -5 15 -14 -9 -26 21 -16 36 5 7 9 35 9 62 1 33 12 72 32 115 17 36 38 83 46 104 9 22 19 37 21 34 3 -3 -1 -20 -9 -39 -14 -34 -20 -91 -15 -139 1 -14 5 2 9 35 l7 60 1 -85 c2 -90 12 -139 43 -207 11 -24 24 -54 29 -68 5 -14 15 -25 22 -24 10 0 10 2 0 6 -10 4 -10 8 0 21 10 12 10 14 0 8 -15 -9 -43 52 -46 104 -2 20 -5 41 -9 46 -3 5 -13 58 -21 116 -16 106 -16 108 6 152 12 25 25 43 28 41 4 -2 17 17 29 43 21 44 143 174 242 259 20 17 40 39 43 50 4 11 18 31 33 44 25 23 25 23 14 2 -6 -12 -16 -25 -21 -28 -16 -10 -12 -103 10 -237 10 -68 21 -142 23 -166 2 -23 7 -45 11 -49 7 -7 -1 193 -8 205 -2 4 -7 39 -10 77 -4 39 -9 90 -12 115 -5 40 -1 51 35 108 36 56 40 67 35 103 -5 28 -10 36 -15 27 -5 -7 -6 -26 -3 -41 5 -25 -1 -36 -50 -83 -31 -30 -56 -61 -56 -68 0 -7 -11 -23 -25 -36 -14 -13 -25 -21 -25 -19 0 2 -82 -77 -183 -176 -233 -230 -307 -331 -307 -420 0 -46 -17 -37 -26 13 -4 20 -11 46 -17 57 -14 26 -13 19 -48 180 -31 141 -57 283 -62 342 -2 17 -8 37 -14 45 -6 7 -14 24 -19 38 -10 32 -9 27 -18 85 -10 60 -35 156 -46 170 -4 6 -10 29 -12 53 -3 39 -2 43 17 38 11 -3 40 -7 65 -10 34 -4 29 -2 -19 9 -82 19 -93 29 -85 71 4 22 1 40 -10 56 -9 12 -16 32 -16 45 0 12 -4 25 -10 28 -16 10 -12 28 5 21 8 -3 15 -1 15 4 0 5 15 11 33 13 22 3 17 4 -19 5 -57 2 -64 10 -64 68 0 40 25 94 43 94 8 0 7 3 -3 9 -11 8 -6 17 29 48 l42 38 -12 55 c-7 30 -13 91 -13 135 -1 71 3 87 30 140 18 33 35 78 38 100 8 47 22 73 32 62 13 -12 -12 -108 -45 -178 -25 -54 -31 -78 -31 -136 0 -38 6 -91 14 -116 8 -27 10 -49 5 -53 -5 -3 -9 -9 -9 -14 0 -6 9 -2 20 8 11 9 16 18 10 20 -5 2 -8 7 -6 10 2 4 -2 39 -8 79 -14 79 -9 93 31 93 29 0 95 -27 105 -43 5 -8 20 2 45 32 21 25 48 55 61 68 12 13 22 32 22 41 1 21 23 52 39 52 18 0 13 -32 -10 -56 -15 -16 -18 -27 -12 -39 8 -14 11 -15 22 -1 7 8 20 12 28 9 12 -5 15 -2 11 8 -8 21 10 62 25 56 8 -3 14 3 14 16 1 11 7 23 13 27 6 4 17 24 24 44 l13 37 33 -67 c19 -37 50 -83 70 -103 20 -20 39 -43 42 -51 3 -11 6 -11 12 -2 5 8 -7 27 -32 52 -23 24 -55 75 -80 130 -46 100 -125 214 -130 188 -3 -16 11 -38 51 -80 9 -10 17 -31 17 -47 0 -32 -43 -119 -68 -138 -26 -21 -40 31 -48 172 -4 69 -10 125 -13 125 -4 0 -5 19 -3 41 3 29 -2 53 -17 79 -19 34 -20 39 -5 51 14 11 19 10 34 -9 10 -12 20 -27 22 -34 2 -6 9 -9 15 -7 7 2 -8 30 -34 64 -44 57 -116 196 -116 223 0 22 -13 12 -32 -25z m64 -114 c29 -61 32 -73 21 -93 -10 -19 -9 -29 3 -52 17 -34 28 -214 14 -239 -6 -12 -4 -20 8 -28 11 -9 17 -30 18 -67 2 -50 0 -55 -18 -52 -12 2 -16 0 -9 -5 24 -17 -72 -173 -106 -173 -4 0 -27 7 -51 15 -24 9 -54 13 -66 10 -19 -4 -23 -1 -23 17 0 13 10 41 22 63 47 87 68 235 32 221 -8 -3 -14 -1 -14 4 0 6 5 10 11 10 13 0 40 26 38 37 -1 4 0 19 4 33 3 14 11 68 17 120 18 155 40 251 57 249 5 0 23 -32 42 -70z m-281 -836 c-2 -18 -1 -33 3 -33 4 0 10 -7 13 -16 6 -15 -29 -63 -46 -64 -10 0 -2 185 8 202 11 17 27 -47 22 -89z m522 -1268 c-13 -14 -28 -25 -33 -25 -6 0 0 11 13 25 13 14 28 25 33 25 6 0 0 -11 -13 -25z m-153 -347 c-3 -8 -6 -5 -6 6 -1 11 2 17 5 13 3 -3 4 -12 1 -19z"/> <path d="M775 3139 c-4 -6 -5 -12 -2 -15 2 -3 7 2 10 11 7 17 1 20 -8 4z"/> <path d="M810 3135 c-11 -13 -10 -14 4 -9 9 3 16 10 16 15 0 13 -6 11 -20 -6z"/> <path d="M575 3110 c19 -21 12 -42 -10 -33 -9 3 -15 -1 -15 -8 0 -11 -2 -11 -10 1 -7 12 -9 10 -7 -8 2 -26 1 -26 21 -6 9 9 16 11 16 4 0 -18 19 -1 37 33 16 31 15 31 -2 17 -17 -13 -18 -13 -13 0 4 11 -1 16 -14 17 -19 2 -19 1 -3 -17z"/> <path d="M863 3117 c-3 -5 -2 -11 1 -14 3 -4 6 -1 6 5 0 6 6 9 14 6 8 -3 17 -1 20 5 4 5 -3 9 -15 8 -11 -1 -23 -5 -26 -10z"/> <path d="M517 3107 c-3 -8 4 -13 19 -13 27 0 32 11 8 20 -21 8 -21 8 -27 -7z"/> <path d="M622 3080 c-10 -16 -10 -20 1 -20 7 0 13 9 14 20 1 11 1 20 0 20 -1 0 -8 -9 -15 -20z"/> <path d="M760 3080 c0 -5 5 -10 11 -10 5 0 7 5 4 10 -3 6 -8 10 -11 10 -2 0 -4 -4 -4 -10z"/> <path d="M607 3043 c-4 -6 0 -19 9 -27 18 -19 31 -21 17 -3 -6 6 -12 19 -15 27 -3 9 -7 10 -11 3z"/> <path d="M1239 3018 c-17 -17 -27 -38 -24 -45 3 -8 5 -19 5 -24 0 -4 7 -6 15 -3 8 4 15 10 15 16 0 5 -4 6 -10 3 -6 -3 -10 4 -10 16 0 21 1 21 18 6 24 -22 39 -21 52 2 12 24 13 42 1 22 -5 -8 -11 -9 -15 -3 -9 15 34 26 47 13 7 -7 6 -16 -7 -30 -9 -10 -13 -22 -8 -25 5 -3 15 6 22 19 16 30 25 31 39 8 7 -12 10 -14 11 -4 0 11 3 11 17 0 10 -8 4 3 -12 23 -27 33 -55 53 -40 28 3 -5 2 -10 -4 -10 -5 0 -13 5 -16 10 -14 22 -67 10 -96 -22z m44 -21 c4 3 7 1 7 -6 0 -17 -32 -10 -38 9 -4 12 -3 13 10 3 8 -7 18 -10 21 -6z"/> <path d="M545 3029 c-8 -11 22 -49 39 -49 6 0 0 7 -12 16 -13 9 -21 22 -18 30 6 16 0 19 -9 3z"/> <path d="M825 3030 c-3 -5 -1 -10 4 -10 6 0 11 5 11 10 0 6 -2 10 -4 10 -3 0 -8 -4 -11 -10z"/> <path d="M930 2990 c-24 -9 -46 -22 -48 -29 -2 -6 -8 -9 -13 -5 -5 3 -12 -2 -15 -10 -3 -9 -12 -16 -20 -16 -12 0 -34 -29 -34 -46 0 -3 17 9 39 29 36 32 113 66 160 70 19 1 30 16 14 18 -5 0 -15 2 -23 4 -8 1 -35 -5 -60 -15z"/> <path d="M933 2930 c-13 -5 -23 -14 -23 -20 0 -6 -4 -8 -10 -5 -5 3 -26 -10 -45 -30 -27 -26 -35 -41 -30 -56 l7 -21 22 21 c12 12 31 21 42 22 10 0 13 3 7 6 -7 2 -13 12 -13 20 0 13 -3 13 -17 2 -15 -11 -16 -11 -6 1 17 18 43 22 43 5 0 -19 30 -27 47 -13 10 8 13 22 9 42 l-6 29 22 -19 c12 -10 18 -13 14 -6 -10 16 2 15 20 -2 17 -18 18 -29 2 -24 -13 5 -48 -21 -48 -35 0 -5 7 -1 16 7 8 9 24 16 35 16 30 0 25 44 -6 58 -30 14 -51 14 -82 2z m24 -40 c1 -14 0 -18 -3 -10 -4 8 -14 21 -23 28 -14 13 -14 13 4 10 13 -2 21 -12 22 -28z m-30 -12 c-3 -8 -6 -5 -6 6 -1 11 2 17 5 13 3 -3 4 -12 1 -19z"/> <path d="M1254 2926 c-13 -10 -10 -12 20 -8 41 5 44 8 16 15 -10 3 -26 -1 -36 -7z"/> <path d="M1320 2931 c0 -5 9 -7 20 -4 11 3 20 7 20 9 0 2 -9 4 -20 4 -11 0 -20 -4 -20 -9z"/> <path d="M630 2919 c0 -6 7 -17 15 -25 8 -9 15 -11 15 -5 0 5 -5 13 -11 17 -8 4 -7 9 2 15 11 7 10 9 -3 9 -10 0 -18 -5 -18 -11z"/> <path d="M1062 2911 c7 -11 16 -17 20 -14 10 5 -10 33 -23 33 -5 0 -4 -9 3 -19z"/> <path d="M561 2863 c7 -12 15 -20 18 -17 3 2 -3 12 -13 22 -17 16 -18 16 -5 -5z"/> <path d="M1063 2873 c9 -2 23 -2 30 0 6 3 -1 5 -18 5 -16 0 -22 -2 -12 -5z"/> <path d="M1185 2853 c6 -27 42 -69 51 -61 6 6 -19 58 -28 58 -5 0 -8 7 -8 15 0 8 -5 15 -11 15 -7 0 -9 -10 -4 -27z"/> <path d="M590 2855 c0 -2 10 -10 23 -16 20 -11 21 -11 8 4 -13 16 -31 23 -31 12z"/> <path d="M1040 2850 c0 -5 -3 -9 -7 -9 -22 4 -43 -2 -39 -10 6 -10 -91 -47 -109 -42 -5 1 -7 0 -4 -4 4 -3 3 -21 -1 -40 -5 -20 -4 -33 1 -29 5 3 9 15 9 27 0 18 11 26 53 42 28 11 56 21 61 24 5 2 -6 -11 -25 -28 l-34 -33 53 28 c28 15 52 30 53 33 0 3 2 16 5 29 2 12 -1 22 -6 22 -6 0 -10 -4 -10 -10z m-5 -30 c3 -6 -1 -7 -9 -4 -18 7 -21 14 -7 14 6 0 13 -4 16 -10z"/> <path d="M790 2840 c0 -5 5 -10 11 -10 5 0 7 5 4 10 -3 6 -8 10 -11 10 -2 0 -4 -4 -4 -10z"/> <path d="M607 2813 c-19 -18 9 -59 58 -85 19 -11 19 -10 2 16 -10 15 -15 31 -12 37 14 21 -30 50 -48 32z"/> <path d="M1290 2791 c0 -5 7 -14 15 -21 19 -16 19 -38 0 -83 -8 -19 -11 -38 -7 -41 3 -4 -2 -4 -13 -1 -19 6 -19 6 -3 -8 17 -13 17 -15 0 -31 -10 -9 -22 -16 -25 -16 -9 0 -9 27 1 33 4 2 1 2 -5 1 -7 -2 -13 0 -13 5 0 11 -46 31 -70 31 -11 0 -20 -4 -20 -10 0 -5 -7 -10 -15 -10 -19 0 -37 43 -28 66 4 12 2 15 -8 12 -18 -6 -30 -65 -15 -77 6 -5 34 -8 61 -6 60 5 88 -2 82 -20 -3 -7 0 -18 6 -25 9 -9 7 -11 -8 -8 -11 1 -23 7 -27 12 -3 5 -14 11 -23 12 -15 2 -15 0 2 -18 16 -19 16 -21 1 -15 -10 3 -20 1 -24 -5 -4 -7 -9 -6 -15 3 -7 11 -9 11 -9 -2 0 -9 -7 -20 -16 -23 -8 -3 -12 -11 -8 -17 4 -8 3 -9 -4 -5 -6 4 -16 -4 -22 -16 -9 -19 -9 -21 2 -7 7 9 19 14 26 12 6 -3 12 3 12 12 0 11 5 15 14 12 9 -4 17 2 21 14 7 20 7 20 22 2 8 -10 12 -13 9 -6 -10 18 24 32 51 22 19 -7 29 -4 47 14 24 22 30 25 76 34 13 2 26 6 28 8 8 7 -10 25 -24 25 -8 0 -12 -4 -9 -10 9 -15 -7 -11 -30 6 -13 11 -16 18 -8 21 7 2 10 10 7 17 -3 8 1 20 8 27 15 17 22 43 9 35 -5 -3 -12 5 -15 18 -5 22 -36 45 -36 27z"/> <path d="M1062 2778 c-7 -7 -12 -18 -12 -26 0 -7 -5 -10 -12 -6 -7 4 -8 3 -4 -5 9 -14 26 -5 26 15 0 8 4 13 8 10 5 -3 9 1 9 9 0 18 0 18 -15 3z"/> <path d="M1270 2781 c0 -6 4 -13 10 -16 6 -3 7 1 4 9 -7 18 -14 21 -14 7z"/> <path d="M1115 2740 c-19 -8 -19 -9 3 -9 12 -1 22 4 22 9 0 6 -1 10 -2 9 -2 0 -12 -4 -23 -9z"/> <path d="M689 2691 c13 -12 28 -21 35 -21 12 0 -5 14 -39 31 -16 8 -15 6 4 -10z"/> <path d="M901 2694 c0 -11 3 -14 6 -6 3 7 2 16 -1 19 -3 4 -6 -2 -5 -13z"/> <path d="M1234 2689 c-3 -6 -2 -15 3 -20 5 -5 9 -1 9 11 0 23 -2 24 -12 9z"/> <path d="M1399 2657 c6 -8 8 -17 4 -20 -3 -4 -2 -7 3 -7 5 0 10 -8 11 -19 1 -14 -3 -17 -18 -14 -11 3 -19 0 -19 -7 0 -7 6 -10 14 -7 17 7 41 -18 51 -52 6 -18 4 -22 -6 -15 -25 15 -47 14 -54 -3 -3 -10 -3 -14 1 -10 4 4 13 2 21 -4 10 -9 13 -7 13 6 0 26 12 10 14 -16 0 -12 6 -24 12 -26 7 -2 10 6 6 24 -5 25 -3 26 11 15 9 -8 14 -19 11 -27 -6 -16 12 -29 21 -15 3 5 -6 27 -20 47 -27 41 -33 62 -12 44 10 -8 14 -7 14 4 0 8 -9 15 -19 15 -10 0 -19 3 -19 8 -1 4 -3 19 -5 35 -1 15 -10 34 -18 42 -18 19 -32 20 -17 2z"/> <path d="M741 2616 c-7 -8 -8 -17 -3 -20 6 -3 12 3 15 14 6 24 4 25 -12 6z"/> <path d="M1476 2612 c-2 -4 -1 -14 5 -22 7 -12 9 -10 9 8 0 23 -5 28 -14 14z"/> <path d="M770 2582 c-13 -14 -12 -15 2 -10 26 10 29 -3 5 -23 l-22 -19 28 11 c30 14 32 17 14 40 -11 15 -14 15 -27 1z"/> <path d="M1316 2563 c-22 -14 -51 -27 -65 -28 -14 -1 -43 -10 -65 -19 -21 -9 -42 -16 -46 -16 -4 0 -11 -8 -15 -17 -7 -17 -8 -16 -15 2 -5 11 -9 14 -9 8 -1 -7 -8 -13 -16 -13 -8 0 -15 -5 -15 -11 0 -6 -9 -22 -20 -36 -26 -34 -37 -92 -19 -104 8 -5 10 -9 6 -9 -4 0 -2 -6 5 -13 10 -12 15 -12 27 0 10 11 16 11 21 3 4 -7 6 7 4 30 -3 44 -13 67 -15 34 -1 -10 -1 -26 0 -35 1 -9 -5 -19 -14 -22 -17 -7 -20 4 -5 19 6 6 6 15 0 24 -8 12 -10 10 -10 -9 0 -16 -3 -22 -10 -15 -11 11 -2 56 11 49 4 -3 6 6 3 21 -3 18 -1 23 7 18 7 -4 9 -3 5 4 -3 6 -1 14 5 18 8 5 10 -1 7 -20 -3 -14 -1 -26 3 -26 5 0 9 8 9 19 0 10 8 25 17 32 15 13 16 12 8 -11 -4 -14 -7 -52 -6 -84 0 -32 -4 -64 -9 -71 -15 -18 -2 -45 18 -38 12 5 14 2 9 -11 -4 -10 -3 -15 3 -11 6 3 10 15 10 26 0 11 -4 17 -10 14 -6 -4 -9 14 -8 47 1 29 -2 64 -6 77 -6 16 -5 21 3 17 7 -5 11 2 11 17 0 14 10 32 23 41 12 9 15 14 7 11 -8 -4 -4 2 9 13 13 10 46 24 72 30 44 10 129 55 129 67 0 10 -16 3 -54 -22z m-216 -97 c0 -3 -4 -8 -10 -11 -5 -3 -10 -1 -10 4 0 6 5 11 10 11 6 0 10 -2 10 -4z"/> <path d="M1077 2551 c-4 -17 -3 -21 5 -13 5 5 8 16 6 23 -3 8 -7 3 -11 -10z"/> <path d="M1394 2555 c8 -8 18 -15 22 -15 3 0 1 7 -6 15 -7 8 -17 15 -22 15 -5 0 -3 -7 6 -15z"/> <path d="M779 2523 c-11 -15 -11 -16 0 -6 11 9 18 6 35 -15 29 -37 48 -72 39 -72 -13 0 -30 14 -36 30 -4 12 -6 12 -6 -2 -1 -10 13 -25 32 -34 17 -9 29 -13 25 -9 -4 5 -2 15 4 23 7 8 13 21 14 29 2 12 -1 11 -17 -3 -20 -18 -27 -6 -8 13 8 8 6 11 -7 10 -11 -1 -18 4 -16 12 2 12 -24 40 -39 41 -4 0 -13 -8 -20 -17z"/> <path d="M995 2520 c-10 -11 -15 -23 -12 -27 4 -3 7 -1 7 5 0 7 5 12 11 12 6 0 9 -7 5 -15 -3 -8 -1 -15 4 -15 6 0 10 7 10 15 0 8 6 15 14 15 8 0 18 5 22 12 5 7 2 9 -8 5 -9 -3 -20 -1 -25 4 -6 6 -16 2 -28 -11z"/> <path d="M1516 2515 c4 -8 10 -12 15 -9 14 8 10 24 -6 24 -9 0 -12 -6 -9 -15z"/> <path d="M890 2511 c0 -11 29 -35 35 -29 2 2 -4 12 -15 21 -11 9 -20 13 -20 8z"/> <path d="M1330 2495 c-7 -8 -16 -12 -21 -9 -5 3 -6 -2 -3 -10 9 -23 19 -20 32 9 13 28 10 32 -8 10z"/> <path d="M791 2484 c0 -11 3 -14 6 -6 3 7 2 16 -1 19 -3 4 -6 -2 -5 -13z"/> <path d="M1045 2490 c3 -5 8 -10 11 -10 2 0 4 5 4 10 0 6 -5 10 -11 10 -5 0 -7 -4 -4 -10z"/> <path d="M1230 2478 c0 -4 5 -10 10 -13 6 -3 10 -13 10 -21 0 -9 -5 -12 -11 -8 -7 4 -7 -1 1 -15 7 -15 8 -26 2 -34 -7 -8 -6 -18 3 -30 17 -24 25 -3 14 37 -6 20 -5 32 3 37 13 8 38 1 38 -12 0 -13 -18 -11 -23 4 -3 6 -6 2 -6 -10 -1 -13 3 -23 8 -23 13 0 10 -51 -4 -56 -7 -3 -11 -13 -8 -23 3 -11 -2 -21 -12 -25 -9 -3 -14 -2 -10 3 3 5 1 20 -4 33 l-9 23 -7 -28 c-5 -17 -3 -33 5 -42 10 -12 9 -15 -4 -15 -9 0 -16 5 -16 12 0 7 -7 5 -17 -5 -10 -8 -22 -16 -28 -16 -5 0 -11 -5 -14 -12 -2 -6 1 -9 7 -6 13 9 30 -12 36 -46 2 -15 7 -31 11 -37 3 -5 3 -10 -2 -10 -14 0 -77 42 -90 59 -6 9 -15 12 -20 7 -4 -5 -2 -11 5 -13 6 -3 10 -8 7 -13 -3 -5 4 -11 15 -15 11 -3 20 -11 20 -16 0 -5 5 -9 12 -9 14 0 68 -59 69 -77 2 -21 4 -26 27 -77 12 -27 22 -52 22 -57 0 -5 5 -9 10 -9 6 0 15 -11 22 -25 6 -13 14 -22 18 -20 4 3 10 -6 12 -20 4 -17 1 -25 -8 -25 -7 0 -11 -6 -8 -13 2 -7 -4 -22 -15 -34 -11 -11 -17 -24 -14 -27 3 -3 -10 -30 -30 -61 -21 -30 -37 -58 -37 -63 0 -4 -9 -14 -21 -22 -29 -21 -42 -48 -45 -95 -2 -28 0 -34 6 -20 8 19 8 19 16 1 4 -11 2 -27 -5 -38 -11 -17 -10 -18 9 -8 24 13 26 42 5 60 -22 18 -19 35 13 67 30 29 148 237 157 275 4 17 -8 41 -45 92 -46 63 -90 170 -90 220 0 9 -7 31 -16 47 -19 38 -12 47 15 20 l21 -21 31 65 c34 73 80 125 111 125 22 0 78 -36 78 -51 0 -13 -34 -11 -50 4 -12 10 -12 9 -2 -5 11 -14 9 -20 -15 -43 -15 -14 -43 -36 -62 -47 -19 -12 -29 -24 -23 -26 13 -4 60 26 107 68 74 67 130 76 153 25 16 -34 15 -46 -3 -39 -8 3 -24 -1 -37 -10 -13 -9 -40 -21 -60 -27 -21 -5 -38 -14 -38 -19 0 -10 62 6 100 25 71 36 80 38 103 28 15 -7 27 -23 31 -43 4 -22 10 -30 20 -27 7 3 23 -1 35 -9 26 -18 29 -84 6 -128 -9 -17 -15 -56 -15 -98 0 -53 -8 -94 -31 -162 -17 -50 -33 -93 -34 -94 -2 -2 -27 14 -57 36 -64 48 -169 102 -199 102 -21 0 -22 -1 -4 -20 10 -11 21 -17 26 -14 12 7 111 -44 132 -70 10 -11 15 -15 11 -7 -5 9 2 8 19 -5 15 -10 27 -23 27 -27 0 -5 4 -6 9 -2 5 3 12 1 16 -4 3 -6 12 -8 19 -5 15 6 86 -47 186 -138 l73 -67 -42 -65 c-44 -70 -50 -86 -26 -66 8 7 15 17 15 21 0 5 16 32 35 60 l35 51 -37 36 c-21 20 -37 40 -35 45 1 4 -1 6 -6 3 -5 -3 -26 11 -48 30 -21 19 -58 49 -82 65 -48 34 -49 39 -12 122 12 26 24 46 28 43 4 -2 7 39 7 92 0 54 5 111 12 129 20 55 19 117 -3 144 -10 13 -26 24 -34 24 -8 0 -21 12 -28 28 -7 15 -18 27 -23 27 -6 0 -8 4 -5 8 2 4 -5 9 -16 9 -12 1 -38 18 -57 37 -70 68 -71 69 -71 52 0 -27 -39 -30 -63 -4 -13 14 -28 23 -35 20 -7 -2 -12 0 -10 5 3 13 -31 73 -43 73 -15 0 -28 -43 -18 -62 6 -10 5 -19 -1 -23 -5 -3 -10 -3 -10 2 -1 4 -7 -5 -15 -22 l-13 -30 -1 27 c-1 15 3 29 9 33 5 3 0 15 -11 26 -11 11 -24 17 -28 14 -5 -2 -12 2 -15 11 -5 12 -2 15 9 10 9 -3 13 -2 10 3 -6 11 -45 10 -45 -1z m146 -34 c4 -23 -22 -29 -30 -7 -3 8 2 13 12 13 15 0 15 2 2 11 -12 8 -12 10 -1 7 8 -2 16 -13 17 -24z m-81 -504 c3 -5 1 -10 -4 -10 -6 0 -11 5 -11 10 0 6 2 10 4 10 3 0 8 -4 11 -10z"/> <path d="M1390 2488 c0 -3 9 -15 20 -28 11 -13 20 -19 20 -13 0 5 -9 18 -20 28 -11 10 -20 16 -20 13z"/> <path d="M912 2447 c1 -15 10 -35 20 -43 13 -12 15 -22 7 -41 -6 -16 -6 -22 1 -18 6 3 10 13 10 21 0 20 18 18 23 -3 4 -17 5 -17 6 0 0 9 6 17 12 17 5 0 7 5 3 12 -5 8 -2 9 9 5 10 -3 17 -2 17 3 0 6 -5 10 -11 10 -5 0 -7 5 -4 10 3 6 -1 10 -9 10 -9 0 -15 -3 -15 -7 3 -19 -2 -33 -12 -33 -6 0 -8 7 -5 16 5 14 4 15 -8 5 -12 -10 -14 -8 -12 13 3 30 16 48 16 22 0 -9 5 -14 10 -11 15 9 12 22 -7 29 -9 4 -20 1 -25 -6 -6 -10 -10 -10 -18 2 -8 12 -9 9 -8 -13z"/> <path d="M1035 2460 c-3 -5 -1 -10 4 -10 6 0 11 5 11 10 0 6 -2 10 -4 10 -3 0 -8 -4 -11 -10z"/> <path d="M1184 2463 c4 -7 2 -13 -3 -13 -6 0 -11 -5 -11 -11 0 -8 5 -8 15 1 20 17 19 0 -2 -30 -9 -14 -13 -22 -8 -18 16 15 33 -13 30 -50 -1 -20 -1 -28 2 -17 2 11 8 34 13 52 6 24 5 30 -5 27 -8 -4 -11 2 -8 19 3 14 -2 29 -13 38 -11 9 -15 9 -10 2z"/> <path d="M1454 2434 c3 -9 6 -20 6 -25 0 -6 4 -8 9 -5 12 8 2 46 -11 46 -6 0 -7 -7 -4 -16z"/> <path d="M1540 2435 c0 -8 4 -15 10 -15 5 0 7 7 4 15 -4 8 -8 15 -10 15 -2 0 -4 -7 -4 -15z"/> <path d="M878 2406 c-3 -14 -2 -26 2 -26 12 0 19 26 10 39 -5 9 -9 4 -12 -13z"/> <path d="M1143 2406 c3 -8 1 -17 -6 -20 -8 -3 -9 -7 -2 -13 13 -10 19 -47 7 -39 -6 3 -7 -8 -3 -27 5 -24 12 -32 29 -33 12 -1 22 5 22 12 0 8 -7 14 -16 14 -8 0 -12 -4 -9 -10 3 -5 2 -10 -4 -10 -6 0 -7 27 -4 70 4 52 2 70 -7 70 -7 0 -10 -6 -7 -14z"/> <path d="M896 2371 c-3 -5 1 -14 9 -21 13 -11 14 -10 9 5 -5 13 -4 16 4 11 7 -4 12 -2 12 3 0 13 -27 15 -34 2z"/> <path d="M1173 2364 c-3 -8 -1 -25 4 -37 8 -18 10 -16 11 16 1 39 -5 48 -15 21z"/> <path d="M990 2361 c0 -5 5 -13 10 -16 6 -3 10 -2 10 4 0 5 -4 13 -10 16 -5 3 -10 2 -10 -4z"/> <path d="M585 2339 c-4 -6 -5 -12 -2 -15 2 -3 7 2 10 11 7 17 1 20 -8 4z"/> <path d="M870 2336 c0 -2 7 -9 15 -16 9 -7 15 -8 15 -2 0 5 -7 12 -15 16 -8 3 -15 4 -15 2z"/> <path d="M967 2303 c-16 -19 -36 -84 -21 -70 4 4 9 15 10 23 1 9 5 23 9 32 5 14 7 14 15 2 8 -12 10 -10 10 8 0 27 -2 27 -23 5z"/> <path d="M1009 2318 c-7 -25 -7 -48 1 -53 6 -3 10 -1 10 5 0 6 5 8 10 5 6 -3 10 -2 10 3 0 6 -7 13 -16 16 -8 3 -12 10 -9 16 3 5 4 10 1 10 -3 0 -6 -1 -7 -2z"/> <path d="M631 2298 c-1 -23 91 -78 118 -71 23 6 29 23 7 23 -32 0 -115 34 -119 49 -4 14 -5 14 -6 -1z"/> <path d="M780 2302 c0 -7 4 -12 10 -12 5 0 7 -8 3 -17 -5 -15 -3 -16 8 -5 11 10 10 15 -4 29 -11 11 -17 13 -17 5z"/> <path d="M695 2290 c3 -5 8 -10 11 -10 2 0 4 5 4 10 0 6 -5 10 -11 10 -5 0 -7 -4 -4 -10z"/> <path d="M1072 2280 c0 -14 2 -19 5 -12 2 6 2 18 0 25 -3 6 -5 1 -5 -13z"/> <path d="M65 2270 c-3 -5 -1 -10 4 -10 6 0 11 5 11 10 0 6 -2 10 -4 10 -3 0 -8 -4 -11 -10z"/> <path d="M370 2245 c-16 -19 -1 -19 24 0 16 12 17 15 4 15 -8 0 -21 -7 -28 -15z"/> <path d="M986 2245 c-3 -8 -1 -15 4 -15 13 0 22 18 11 24 -5 3 -11 -1 -15 -9z"/> <path d="M1569 2234 c25 -32 20 -44 -19 -44 -16 0 -32 -5 -35 -10 -8 -12 23 -7 100 17 40 13 46 18 30 23 -12 4 -24 2 -30 -7 -8 -11 -14 -8 -28 17 -10 16 -23 30 -28 30 -6 0 -1 -12 10 -26z"/> <path d="M1050 2235 c0 -14 -3 -15 -15 -5 -10 8 -15 9 -15 1 0 -6 11 -13 25 -17 14 -3 22 -10 19 -15 -3 -5 0 -9 5 -9 16 0 13 36 -4 50 -12 10 -15 9 -15 -5z"/> <path d="M1596 2238 c3 -5 10 -6 15 -3 13 9 11 12 -6 12 -8 0 -12 -4 -9 -9z"/> <path d="M1339 2203 c-13 -16 -12 -17 4 -4 9 7 17 15 17 17 0 8 -8 3 -21 -13z"/> <path d="M680 2195 c0 -8 18 -26 40 -40 22 -14 48 -32 58 -40 85 -69 117 -97 186 -159 43 -39 86 -78 95 -86 9 -8 32 -26 51 -39 25 -18 21 -12 -15 22 -27 25 -54 50 -60 54 -5 5 -46 42 -90 82 -92 84 -180 153 -225 176 -20 10 -30 22 -26 31 3 8 1 14 -4 14 -6 0 -10 -7 -10 -15z"/> <path d="M745 2200 c-4 -6 -11 -7 -17 -4 -7 4 -8 2 -4 -5 6 -9 11 -9 22 0 14 11 18 19 10 19 -3 0 -8 -5 -11 -10z"/> <path d="M1357 2182 c-10 -10 -17 -32 -16 -48 l0 -29 17 35 c9 19 20 37 25 38 10 5 9 22 -1 22 -5 0 -16 -8 -25 -18z"/> <path d="M1450 2180 c-14 -10 -23 -21 -20 -23 3 -2 16 6 30 19 30 29 25 31 -10 4z"/> <path d="M345 2179 c-4 -6 -5 -12 -2 -15 2 -3 7 2 10 11 7 17 1 20 -8 4z"/> <path d="M315 2160 c-3 -5 -1 -10 4 -10 6 0 11 5 11 10 0 6 -2 10 -4 10 -3 0 -8 -4 -11 -10z"/> <path d="M1565 2150 c4 -6 11 -8 16 -5 14 9 11 15 -7 15 -8 0 -12 -5 -9 -10z"/> <path d="M1450 2136 c-6 -9 -10 -21 -7 -28 4 -9 6 -7 6 4 1 9 7 18 14 21 6 2 9 7 6 11 -3 4 -12 0 -19 -8z"/> <path d="M2144 2125 c-3 -8 -4 -20 -2 -27 3 -7 7 -1 10 15 6 29 1 36 -8 12z"/> <path d="M1670 2122 c0 -7 5 -12 10 -12 6 0 10 -11 10 -25 0 -33 16 -32 23 0 2 14 2 23 -1 20 -3 -3 -14 2 -24 12 -11 9 -18 11 -18 5z"/> <path d="M1558 2108 c-4 -9 4 -14 23 -15 16 -1 29 2 29 7 0 6 -4 10 -9 10 -5 0 -16 3 -24 6 -8 3 -17 -1 -19 -8z"/> <path d="M1395 2101 c-3 -5 -1 -12 5 -16 5 -3 10 1 10 9 0 18 -6 21 -15 7z"/> <path d="M1480 2089 c0 -11 5 -17 10 -14 6 3 10 13 10 21 0 8 -4 14 -10 14 -5 0 -10 -9 -10 -21z"/> <path d="M1566 2064 c-9 -24 -2 -26 12 -4 7 11 8 20 3 20 -5 0 -12 -7 -15 -16z"/> <path d="M2051 2060 c0 -14 -8 -37 -17 -50 l-17 -25 22 21 c16 15 21 29 18 50 -4 27 -4 27 -6 4z"/> <path d="M1473 2045 c0 -7 6 -11 14 -8 7 3 13 6 13 8 0 2 -6 5 -13 8 -8 3 -14 -1 -14 -8z"/> <path d="M207 2029 c7 -7 15 -10 18 -7 3 3 -2 9 -12 12 -14 6 -15 5 -6 -5z"/> <path d="M2103 2021 c1 -14 9 -26 17 -28 10 -3 11 -2 4 4 -7 4 -14 17 -17 28 -5 16 -5 15 -4 -4z"/> <path d="M285 1994 c28 -14 54 -30 59 -35 6 -5 17 -9 25 -9 9 0 -11 16 -44 35 -33 19 -67 35 -75 35 -8 0 8 -12 35 -26z"/> <path d="M1575 1990 c-3 -5 1 -10 9 -10 9 0 16 5 16 10 0 6 -4 10 -9 10 -6 0 -13 -4 -16 -10z"/> <path d="M1535 1970 c3 -5 8 -10 11 -10 2 0 4 5 4 10 0 6 -5 10 -11 10 -5 0 -7 -4 -4 -10z"/> <path d="M1608 1963 c7 -3 16 -2 19 1 4 3 -2 6 -13 5 -11 0 -14 -3 -6 -6z"/> <path d="M550 1765 c90 -99 175 -190 188 -202 23 -21 23 -23 6 -23 -14 -1 -11 -5 11 -14 17 -8 38 -23 48 -35 l18 -22 -60 3 c-33 1 -63 -1 -67 -5 -4 -4 22 -7 58 -7 51 0 71 -4 89 -20 20 -16 21 -21 10 -29 -11 -7 -70 -20 -113 -25 -8 -1 -23 -16 -15 -16 3 0 38 7 78 15 57 12 74 13 80 3 4 -7 5 -16 2 -22 -3 -5 -1 -6 5 -2 5 3 13 0 15 -6 3 -8 6 -8 6 -2 2 23 -107 163 -214 273 -61 64 -131 138 -156 165 -59 67 -99 107 -129 131 -13 11 50 -61 140 -160z"/> <path d="M1950 1915 c-7 -9 -10 -18 -7 -21 3 -3 10 4 17 15 13 25 8 27 -10 6z"/> <path d="M1580 1879 c0 -5 4 -8 9 -4 5 3 12 -3 14 -12 4 -17 5 -17 6 0 0 10 6 15 11 12 6 -3 10 -1 10 4 0 6 -11 11 -25 11 -14 0 -25 -5 -25 -11z"/> <path d="M260 1850 c0 -9 39 -25 45 -18 2 2 -7 8 -21 15 -13 6 -24 7 -24 3z"/> <path d="M1600 1820 c-13 -8 -12 -10 3 -10 9 0 17 5 17 10 0 12 -1 12 -20 0z"/> <path d="M2180 1820 c0 -5 5 -10 11 -10 5 0 7 5 4 10 -3 6 -8 10 -11 10 -2 0 -4 -4 -4 -10z"/> <path d="M1150 1801 c0 -10 19 -25 25 -20 1 2 -3 10 -11 17 -8 7 -14 8 -14 3z"/> <path d="M318 1744 c2 -13 14 -30 26 -36 20 -11 20 -10 4 9 -10 11 -18 25 -18 31 0 6 -4 13 -9 16 -4 3 -6 -6 -3 -20z"/> <path d="M2193 1746 c4 -10 7 -31 7 -47 0 -16 3 -29 8 -29 11 0 2 79 -11 87 -7 4 -8 0 -4 -11z"/> <path d="M2200 1609 c0 -5 5 -7 10 -4 6 3 10 8 10 11 0 2 -4 4 -10 4 -5 0 -10 -5 -10 -11z"/> <path d="M2336 1598 c3 -4 9 -8 15 -8 5 0 9 4 9 8 0 5 -7 9 -15 9 -8 0 -12 -4 -9 -9z"/> <path d="M368 1593 c6 -2 18 -2 25 0 6 3 1 5 -13 5 -14 0 -19 -2 -12 -5z"/> <path d="M327 1579 c7 -7 15 -10 18 -7 3 3 -2 9 -12 12 -14 6 -15 5 -6 -5z"/> <path d="M480 1575 c41 -7 102 -15 135 -18 57 -5 56 -5 -15 8 -41 7 -102 15 -135 18 -57 5 -56 5 15 -8z"/> <path d="M2363 1564 c-18 -8 -33 -17 -33 -20 0 -8 42 6 65 22 25 18 10 17 -32 -2z"/> <path d="M815 1550 c-3 -5 -1 -10 4 -10 6 0 11 5 11 10 0 6 -2 10 -4 10 -3 0 -8 -4 -11 -10z"/> <path d="M688 1543 c6 -2 18 -2 25 0 6 3 1 5 -13 5 -14 0 -19 -2 -12 -5z"/> <path d="M2300 1530 c-9 -6 -10 -10 -3 -10 6 0 15 5 18 10 8 12 4 12 -15 0z"/> <path d="M343 1493 c9 -2 23 -2 30 0 6 3 -1 5 -18 5 -16 0 -22 -2 -12 -5z"/> <path d="M1346 1484 c-10 -25 1 -29 14 -5 6 12 7 21 1 21 -5 0 -12 -7 -15 -16z"/> <path d="M308 1470 c13 -6 63 -12 110 -15 l87 -4 -70 9 c-38 5 -88 11 -110 14 -32 4 -35 3 -17 -4z"/> <path d="M2205 1470 c3 -5 8 -10 11 -10 2 0 4 5 4 10 0 6 -5 10 -11 10 -5 0 -7 -4 -4 -10z"/> <path d="M518 1449 c-6 -4 16 -9 50 -11 34 -1 58 0 54 3 -10 10 -91 16 -104 8z"/> <path d="M1210 1450 c0 -5 9 -24 20 -42 24 -39 26 -34 5 16 -15 35 -25 46 -25 26z"/> <path d="M2221 1440 c0 -8 6 -37 13 -65 11 -40 14 -44 14 -20 0 30 -26 113 -27 85z"/> <path d="M678 1433 c7 -3 16 -2 19 1 4 3 -2 6 -13 5 -11 0 -14 -3 -6 -6z"/> <path d="M1711 1401 c-13 -11 -21 -24 -18 -28 3 -5 -8 -27 -24 -51 -16 -23 -29 -46 -29 -51 0 -4 -9 -16 -20 -26 -38 -35 -13 -107 32 -90 13 5 19 14 63 83 23 37 39 42 30 10 -7 -23 -7 -23 9 -3 18 23 21 39 5 29 -15 -9 -1 36 17 57 17 19 18 61 2 77 -17 17 -42 15 -67 -7z m65 -16 c4 -17 1 -32 -10 -44 -9 -10 -16 -25 -16 -33 0 -26 -27 -43 -45 -28 -17 14 -20 56 -5 65 6 4 10 -6 10 -21 0 -21 3 -25 11 -17 8 8 9 20 1 41 -12 34 1 62 28 62 13 0 22 -9 26 -25z m-100 -110 c-3 -13 0 -28 6 -31 7 -5 9 0 6 14 -4 15 -2 19 8 15 19 -7 18 -27 -2 -43 -22 -19 -49 9 -40 44 8 33 28 34 22 1z m-33 -42 c4 -3 2 -12 -5 -20 -8 -10 -8 -17 1 -26 10 -9 12 -8 9 7 -1 10 3 21 10 23 18 7 15 -32 -4 -47 -22 -19 -49 9 -40 44 6 26 16 32 29 19z"/> <path d="M1741 1371 c-8 -5 -9 -11 -3 -15 5 -3 12 1 16 9 6 17 6 18 -13 6z"/> <path d="M1198 1388 c-8 -22 59 -238 74 -238 10 0 3 57 -10 90 -20 50 -25 66 -29 94 -6 37 -29 73 -35 54z"/> <path d="M695 1370 c-3 -5 -1 -10 4 -10 6 0 11 5 11 10 0 6 -2 10 -4 10 -3 0 -8 -4 -11 -10z"/> <path d="M578 1363 c-16 -2 -28 -9 -28 -14 0 -6 8 -8 18 -5 9 3 31 8 47 11 24 5 27 4 15 -5 -12 -9 -10 -10 10 -5 62 17 17 30 -62 18z"/> <path d="M792 1363 c-39 -8 -16 -18 32 -15 25 2 43 8 40 13 -5 9 -31 10 -72 2z"/> <path d="M1260 1350 c6 -11 13 -20 16 -20 2 0 0 9 -6 20 -6 11 -13 20 -16 20 -2 0 0 -9 6 -20z"/> <path d="M470 1340 c-64 -13 -150 -41 -155 -51 -4 -5 -3 -9 1 -9 19 0 124 33 124 39 0 4 15 7 34 8 19 1 42 6 53 12 17 10 17 10 -2 10 -11 -1 -36 -5 -55 -9z"/> <path d="M916 1342 c-3 -5 1 -15 9 -22 16 -14 20 -3 6 19 -5 8 -11 9 -15 3z"/> <path d="M1805 1340 c-3 -5 -1 -10 4 -10 6 0 11 5 11 10 0 6 -2 10 -4 10 -3 0 -8 -4 -11 -10z"/> <path d="M730 1312 c0 -4 17 -6 38 -4 58 5 62 10 10 11 -27 1 -48 -3 -48 -7z"/> <path d="M1280 1307 c0 -10 6 -28 14 -40 16 -25 66 -170 70 -205 2 -12 7 -26 11 -30 12 -11 -4 83 -24 141 -24 69 -70 157 -71 134z"/> <path d="M1310 1316 c0 -2 8 -10 18 -17 15 -13 16 -12 3 4 -13 16 -21 21 -21 13z"/> <path d="M2254 1192 c-1 -91 0 -99 7 -52 12 85 13 124 3 142 -6 11 -9 -19 -10 -90z"/> <path d="M468 1267 c-37 -13 -73 -28 -80 -35 -7 -7 -19 -12 -27 -12 -11 0 -12 -3 -4 -11 9 -9 18 -8 35 3 13 8 49 25 81 37 31 13 60 27 63 32 7 11 12 12 -68 -14z"/> <path d="M1195 1275 c23 -68 33 -115 34 -152 1 -112 3 -133 12 -127 25 15 -2 212 -37 272 -8 15 -12 18 -9 7z"/> <path d="M333 1253 c9 -2 25 -2 35 0 9 3 1 5 -18 5 -19 0 -27 -2 -17 -5z"/> <path d="M2546 1247 c3 -10 9 -15 12 -12 3 3 0 11 -7 18 -10 9 -11 8 -5 -6z"/> <path d="M893 1229 c-18 -12 -33 -25 -33 -30 0 -14 5 -11 41 21 40 35 37 38 -8 9z"/> <path d="M2570 1198 c1 -2 7 -25 15 -53 11 -39 14 -44 14 -21 1 23 5 27 21 23 13 -3 20 0 20 10 0 8 -4 12 -8 9 -5 -3 -16 4 -25 15 -14 15 -38 27 -37 17z"/> <path d="M825 1180 c-16 -7 -17 -9 -3 -9 9 -1 20 4 23 9 7 11 7 11 -20 0z"/> <path d="M1035 1080 c4 -101 8 -140 19 -212 1 -10 6 -21 10 -25 5 -5 5 28 1 72 -5 44 -9 92 -10 108 -1 15 -4 30 -5 35 -1 4 -2 21 -1 37 0 17 -3 46 -9 65 -7 26 -8 4 -5 -80z"/> <path d="M1697 1183 c-4 -3 -7 -11 -7 -17 0 -6 5 -5 12 2 6 6 9 14 7 17 -3 3 -9 2 -12 -2z"/> <path d="M1675 1140 c-3 -5 -1 -10 4 -10 6 0 11 5 11 10 0 6 -2 10 -4 10 -3 0 -8 -4 -11 -10z"/> <path d="M1268 1123 c5 -10 8 -23 5 -29 -2 -6 3 -23 10 -38 13 -25 15 -25 20 -6 3 11 1 18 -5 14 -5 -3 -9 0 -7 7 5 39 -2 69 -16 69 -12 0 -13 -5 -7 -17z"/> <path d="M1650 1100 c-6 -11 -8 -20 -6 -20 3 0 10 9 16 20 6 11 8 20 6 20 -3 0 -10 -9 -16 -20z"/> <path d="M1620 1055 c-7 -9 -10 -18 -7 -21 3 -3 10 4 17 15 13 25 8 27 -10 6z"/> <path d="M2281 1044 c0 -11 3 -14 6 -6 3 7 2 16 -1 19 -3 4 -6 -2 -5 -13z"/> <path d="M766 1033 c-6 -14 -5 -15 5 -6 7 7 10 15 7 18 -3 3 -9 -2 -12 -12z"/> <path d="M1376 983 c9 -52 14 -54 14 -5 0 23 -5 42 -10 42 -7 0 -8 -14 -4 -37z"/> <path d="M1587 1013 c-4 -3 -7 -11 -7 -17 0 -6 5 -5 12 2 6 6 9 14 7 17 -3 3 -9 2 -12 -2z"/> <path d="M2300 1001 c0 -5 5 -13 10 -16 6 -3 10 -2 10 4 0 5 -4 13 -10 16 -5 3 -10 2 -10 -4z"/> <path d="M657 935 c-20 -19 -42 -35 -48 -35 -6 0 -9 -6 -6 -14 4 -9 -3 -16 -18 -20 -16 -4 -22 -11 -19 -21 4 -8 1 -15 -5 -15 -6 0 -11 -5 -11 -11 0 -7 -8 -19 -17 -28 -10 -9 -19 -22 -20 -28 -6 -26 13 -11 44 35 18 26 58 73 89 105 62 62 71 89 11 32z"/> <path d="M2405 960 c3 -5 11 -10 16 -10 6 0 7 5 4 10 -3 6 -11 10 -16 10 -6 0 -7 -4 -4 -10z"/> <path d="M2490 960 c0 -5 5 -10 10 -10 6 0 10 5 10 10 0 6 -4 10 -10 10 -5 0 -10 -4 -10 -10z"/> <path d="M1391 864 c0 -11 3 -14 6 -6 3 7 2 16 -1 19 -3 4 -6 -2 -5 -13z"/> <path d="M2080 850 c0 -5 5 -10 11 -10 5 0 7 5 4 10 -3 6 -8 10 -11 10 -2 0 -4 -4 -4 -10z"/> <path d="M2066 815 c4 -22 10 -44 15 -49 5 -6 9 -20 9 -32 0 -13 5 -26 11 -30 14 -8 5 37 -22 102 l-19 49 6 -40z"/> <path d="M2556 812 c-5 -18 -5 -36 -2 -39 7 -7 19 43 13 59 -2 7 -7 -2 -11 -20z"/> <path d="M1486 813 c-6 -14 -5 -15 5 -6 7 7 10 15 7 18 -3 3 -9 -2 -12 -12z"/> <path d="M722 775 c0 -16 2 -22 5 -12 2 9 2 23 0 30 -3 6 -5 -1 -5 -18z"/> <path d="M1476 775 c-3 -9 -6 -22 -5 -28 0 -7 5 -1 10 12 5 13 8 26 5 28 -2 2 -6 -3 -10 -12z"/> <path d="M2165 760 c-3 -5 -1 -10 4 -10 6 0 11 5 11 10 0 6 -2 10 -4 10 -3 0 -8 -4 -11 -10z"/> <path d="M495 730 c-3 -5 -1 -10 4 -10 6 0 11 5 11 10 0 6 -2 10 -4 10 -3 0 -8 -4 -11 -10z"/> <path d="M715 705 c7 -86 33 -174 48 -159 3 3 -1 17 -8 31 -8 15 -12 30 -9 34 3 5 -2 22 -11 39 -8 16 -11 30 -6 30 5 0 12 -6 14 -12 4 -10 6 -10 6 0 1 7 -6 15 -14 18 -8 4 -12 10 -9 15 3 5 1 17 -5 26 -7 13 -8 7 -6 -22z"/> <path d="M481 694 c0 -11 3 -14 6 -6 3 7 2 16 -1 19 -3 4 -6 -2 -5 -13z"/> <path d="M2150 690 c-33 -13 -54 -30 -80 -67 -79 -113 -101 -141 -154 -198 -31 -33 -59 -68 -62 -77 -3 -10 -9 -18 -14 -18 -12 0 6 -59 25 -80 9 -10 29 -20 46 -24 23 -4 31 -12 36 -36 10 -54 51 -64 218 -56 45 2 63 -1 72 -13 9 -11 12 -12 13 -3 0 7 6 12 13 11 6 -1 23 3 37 9 14 6 19 11 11 11 -9 1 -10 5 -4 14 12 15 38 102 53 177 13 66 47 180 59 199 9 14 22 6 81 -50 16 -15 33 -23 39 -19 8 4 -2 16 -26 32 -21 15 -51 38 -66 53 -16 15 -29 25 -31 24 -19 -28 -62 -151 -77 -222 -11 -51 -25 -114 -32 -142 l-13 -50 -139 -8 c-77 -4 -145 -5 -153 -2 -7 2 -23 26 -35 52 -19 42 -25 48 -49 45 -38 -5 -66 38 -49 75 15 32 83 112 96 113 10 0 79 93 104 139 24 46 72 89 107 96 32 5 44 19 27 28 -5 2 -28 -4 -53 -13z"/> <path d="M2240 700 c0 -5 11 -12 25 -16 14 -3 33 -16 43 -28 9 -13 22 -21 27 -20 6 2 21 -5 35 -16 21 -17 23 -21 10 -30 -13 -8 -12 -10 3 -10 31 0 17 34 -27 67 -50 36 -116 66 -116 53z"/> <path d="M662 600 c0 -14 2 -19 5 -12 2 6 2 18 0 25 -3 6 -5 1 -5 -13z"/> <path d="M2636 604 c-11 -7 -16 -17 -13 -21 4 -4 15 1 24 10 22 21 14 30 -11 11z"/> <path d="M521 594 c0 -11 3 -14 6 -6 3 7 2 16 -1 19 -3 4 -6 -2 -5 -13z"/> <path d="M2295 590 c-3 -6 1 -7 9 -4 18 7 21 14 7 14 -6 0 -13 -4 -16 -10z"/> <path d="M2340 590 c0 -5 5 -10 10 -10 6 0 10 5 10 10 0 6 -4 10 -10 10 -5 0 -10 -4 -10 -10z"/> <path d="M2255 579 c-4 -6 -5 -12 -2 -15 2 -3 7 2 10 11 7 17 1 20 -8 4z"/> <path d="M676 535 c6 -39 11 -52 17 -44 2 2 -2 22 -10 44 l-13 40 6 -40z"/> <path d="M2560 553 c0 -34 17 -46 18 -14 0 17 -4 31 -9 31 -5 0 -9 -8 -9 -17z"/> <path d="M2300 552 c0 -4 9 -8 19 -8 11 0 17 4 15 8 -3 4 -12 8 -20 8 -8 0 -14 -4 -14 -8z"/> <path d="M614 515 c11 -61 12 -64 19 -71 4 -4 7 -14 7 -22 0 -15 47 -122 54 -122 2 0 1 11 -2 25 -2 14 -8 25 -13 25 -5 0 -6 7 -3 15 4 8 1 15 -5 15 -6 0 -10 3 -9 8 1 4 -8 33 -20 65 -25 65 -26 71 -12 62 16 -10 12 5 -7 23 -15 16 -16 14 -9 -23z"/> <path d="M2249 535 c-3 -6 0 -28 7 -50 9 -29 12 -33 12 -15 0 35 -13 77 -19 65z"/> <path d="M1254 523 c2 -2 -9 -18 -25 -36 -16 -17 -29 -36 -29 -41 0 -5 1 -7 3 -5 1 2 19 23 40 45 25 27 33 41 22 41 -8 0 -13 -2 -11 -4z"/> <path d="M2110 520 c0 -5 5 -10 10 -10 6 0 10 5 10 10 0 6 -4 10 -10 10 -5 0 -10 -4 -10 -10z"/> <path d="M2315 499 c-9 -28 -2 -33 13 -9 6 11 8 21 3 25 -5 3 -13 -4 -16 -16z"/> <path d="M700 471 c0 -6 14 -39 30 -72 17 -33 28 -65 24 -71 -4 -7 -3 -8 4 -4 10 6 15 -2 14 -24 0 -3 6 -11 14 -18 21 -19 18 -12 -36 99 -27 56 -50 97 -50 90z"/> <path d="M2780 435 c-7 -9 -11 -17 -9 -20 3 -2 10 5 17 15 14 24 10 26 -8 5z"/> <path d="M2247 427 c-3 -8 1 -14 9 -14 16 0 19 13 5 21 -5 3 -11 0 -14 -7z"/> <path d="M1159 408 c-12 -23 -12 -23 10 -4 23 21 26 26 11 26 -5 0 -15 -10 -21 -22z"/> <path d="M2175 420 c-3 -5 -15 -10 -27 -10 -12 0 -50 -28 -89 -65 -38 -36 -77 -65 -86 -65 -13 0 -14 -3 -5 -12 9 -9 18 -6 38 13 24 21 26 22 19 4 -18 -48 -15 -57 7 -22 l25 39 31 -27 c36 -31 43 -23 10 12 -16 17 -19 26 -11 34 12 12 25 9 61 -17 12 -9 22 -13 22 -8 0 5 -16 20 -35 33 -44 30 -44 46 -1 61 29 9 69 40 53 40 -3 0 -9 -4 -12 -10z"/> <path d="M1232 410 c5 -15 77 -45 86 -35 8 8 -1 13 -32 19 -15 3 -35 11 -43 18 -14 11 -15 11 -11 -2z"/> <path d="M1637 413 c-4 -3 -7 -16 -6 -27 0 -19 1 -19 10 3 10 24 8 36 -4 24z"/> <path d="M1991 403 c7 -12 15 -20 18 -17 3 2 -3 12 -13 22 -17 16 -18 16 -5 -5z"/> <path d="M770 377 c0 -2 11 -25 24 -53 13 -27 26 -59 30 -70 4 -12 16 -30 27 -40 19 -17 20 -17 11 2 -40 94 -92 184 -92 161z"/> <path d="M1133 354 c-12 -26 -12 -26 8 -8 12 11 24 17 28 15 3 -2 24 -10 46 -18 22 -8 72 -28 112 -44 39 -16 80 -29 90 -28 10 0 -4 7 -30 15 -26 8 -45 18 -43 23 3 4 0 8 -7 8 -7 0 -50 14 -96 31 -45 18 -86 32 -89 32 -4 0 -12 -12 -19 -26z"/> <path d="M1330 372 c0 -5 6 -9 13 -10 6 0 38 -5 70 -10 36 -5 56 -5 54 1 -1 5 -21 11 -42 13 -22 2 -52 6 -67 10 -16 3 -28 1 -28 -4z"/> <path d="M2301 364 c0 -11 3 -14 6 -6 3 7 2 16 -1 19 -3 4 -6 -2 -5 -13z"/> <path d="M459 366 c-2 -2 -44 -6 -94 -10 -195 -12 -254 -19 -249 -28 4 -6 23 -7 43 -4 26 4 30 3 16 -4 -17 -7 -14 -9 15 -9 23 -1 30 2 22 8 -10 6 -8 10 9 14 12 3 27 3 33 -1 15 -9 50 -9 57 1 3 5 22 10 42 11 29 3 34 0 29 -13 -5 -14 -3 -13 15 2 22 19 43 22 43 6 0 -17 23 -5 26 14 2 17 1 20 -7 13z"/> <path d="M519 333 c-43 -47 -81 -104 -75 -110 3 -4 6 -3 6 1 0 4 13 -2 29 -13 16 -12 31 -21 34 -21 3 0 28 -14 56 -31 27 -17 65 -33 83 -34 19 -2 32 -8 30 -15 -1 -6 2 -9 8 -5 6 4 32 -6 58 -21 123 -73 219 -103 127 -40 -28 18 -53 32 -57 29 -5 -2 -8 1 -8 7 0 6 -4 8 -10 5 -5 -3 -10 2 -11 12 0 12 -2 13 -6 5 -4 -10 -11 -8 -29 9 -13 12 -24 19 -24 14 0 -4 -9 0 -20 10 -11 10 -20 15 -20 12 0 -4 -28 9 -62 27 -57 32 -63 33 -74 18 -12 -15 -13 -15 -9 6 2 12 0 23 -6 23 -5 1 -13 2 -18 3 -6 0 -16 7 -22 13 -15 15 1 52 40 96 14 15 20 27 15 27 -6 0 -21 -12 -35 -27z m65 -151 c3 -5 -1 -9 -9 -9 -8 0 -12 4 -9 9 3 4 7 8 9 8 2 0 6 -4 9 -8z"/> <path d="M1490 352 c0 -4 9 -8 20 -9 11 -1 20 2 20 5 0 4 -9 8 -20 9 -11 1 -20 -2 -20 -5z"/> <path d="M1623 348 c3 -10 2 -20 -3 -23 -15 -9 -12 -35 4 -29 13 5 14 50 0 62 -4 4 -4 -1 -1 -10z"/> <path d="M1925 350 c3 -5 8 -10 11 -10 2 0 4 5 4 10 0 6 -5 10 -11 10 -5 0 -7 -4 -4 -10z"/> <path d="M70 332 c-14 -2 -28 -9 -32 -16 -6 -8 -8 -8 -8 2 0 6 -4 12 -10 12 -5 0 -10 -4 -10 -9 0 -14 43 -26 48 -13 2 6 9 9 17 6 7 -3 16 0 20 6 9 15 5 17 -25 12z"/> <path d="M2548 285 c-14 -30 -22 -52 -17 -49 10 6 51 96 46 100 -2 2 -15 -21 -29 -51z"/> <path d="M717 313 c-14 -13 -6 -40 16 -61 27 -26 37 -28 37 -7 0 8 -11 22 -26 31 -14 9 -23 23 -20 30 6 15 3 18 -7 7z"/> <path d="M1093 293 c-26 -37 -39 -63 -19 -38 9 11 23 28 32 38 8 11 13 21 11 24 -3 2 -14 -8 -24 -24z"/> <path d="M1388 313 c12 -2 30 -2 40 0 9 3 -1 5 -23 4 -22 0 -30 -2 -17 -4z"/> <path d="M1466 296 c2 -6 19 -10 37 -10 43 2 52 -5 30 -22 -13 -9 -5 -9 25 3 52 20 41 29 -40 36 -39 3 -55 1 -52 -7z"/> <path d="M1455 247 c11 -8 67 -40 125 -72 58 -31 118 -66 133 -77 16 -11 31 -18 34 -15 7 8 -82 64 -201 126 -98 51 -129 63 -91 38z"/> <path d="M705 238 c8 -19 84 -72 105 -73 8 0 20 -4 27 -8 6 -4 14 -3 18 3 3 5 -7 12 -22 15 -36 8 -82 32 -111 59 -18 16 -22 17 -17 4z"/> <path d="M1705 230 c-19 -8 -19 -9 3 -9 12 -1 22 4 22 9 0 6 -1 10 -2 9 -2 0 -12 -4 -23 -9z"/> <path d="M1025 199 c-26 -26 -28 -29 -10 -29 12 0 25 11 32 27 7 15 12 27 10 29 -1 1 -15 -11 -32 -27z"/> <path d="M1750 216 c0 -2 9 -6 20 -9 11 -3 18 -1 14 4 -5 9 -34 13 -34 5z"/> <path d="M2266 211 c-4 -6 -21 -15 -39 -20 -29 -8 -30 -9 -6 -10 27 -1 68 23 57 34 -3 3 -9 2 -12 -4z"/> <path d="M437 190 c3 -12 28 -38 54 -57 30 -21 51 -45 55 -61 8 -36 32 -72 46 -72 7 0 4 6 -5 13 -9 6 -20 27 -23 46 l-7 35 29 -20 c78 -54 121 -70 49 -19 -11 8 12 -1 50 -20 39 -19 84 -34 100 -34 21 1 24 3 10 6 -11 3 -42 18 -70 33 -27 15 -97 53 -155 85 -58 31 -113 64 -122 72 -15 13 -16 13 -11 -7z"/> <path d="M958 170 c-15 -4 -29 -6 -32 -4 -3 2 -4 1 -1 -3 9 -12 65 -8 65 5 0 6 -1 12 -2 11 -2 0 -15 -4 -30 -9z"/> <path d="M870 161 c0 -10 26 -9 36 2 4 4 -2 7 -14 7 -12 0 -22 -4 -22 -9z"/> <path d="M2348 153 c7 -3 16 -2 19 1 4 3 -2 6 -13 5 -11 0 -14 -3 -6 -6z"/> <path d="M2360 99 c0 -5 5 -7 10 -4 6 3 10 8 10 11 0 2 -4 4 -10 4 -5 0 -10 -5 -10 -11z"/> <path d="M1410 91 c0 -6 4 -13 10 -16 6 -3 7 1 4 9 -7 18 -14 21 -14 7z"/> <path d="M2265 80 c-42 -11 -59 -18 -43 -19 39 -2 128 19 128 30 0 11 0 11 -85 -11z"/> <path d="M1200 71 c0 -6 4 -13 10 -16 6 -3 7 1 4 9 -7 18 -14 21 -14 7z"/> <path d="M2148 30 c-9 -17 -13 -30 -8 -30 6 0 10 5 10 10 0 6 9 19 20 30 12 12 15 20 8 20 -7 0 -21 -14 -30 -30z"/> <path d="M2196 35 c-11 -8 -15 -15 -9 -15 6 0 16 7 23 15 16 19 11 19 -14 0z"/> <path d="M2288 43 c-10 -2 -18 -9 -18 -14 0 -12 7 -11 32 2 15 8 22 8 28 -1 5 -8 9 -7 13 4 6 16 -15 20 -55 9z"/> <path d="M1770 21 c0 -12 5 -21 10 -21 6 0 10 6 10 14 0 8 -4 18 -10 21 -5 3 -10 -3 -10 -14z"/> </g> </svg> 